<svg width="24" height="24" viewBox="0 0 24 24" fill="none" xmlns="http://www.w3.org/2000/svg">
  <!-- Central node -->
  <circle cx="12" cy="12" r="1.5" stroke="black" stroke-width="1" fill="none"/>
  
  <!-- Outer nodes -->
  <circle cx="6" cy="6" r="1" stroke="black" stroke-width="0.8" fill="none"/>
  <circle cx="18" cy="6" r="1" stroke="black" stroke-width="0.8" fill="none"/>
  <circle cx="6" cy="18" r="1" stroke="black" stroke-width="0.8" fill="none"/>
  <circle cx="18" cy="18" r="1" stroke="black" stroke-width="0.8" fill="none"/>
  <circle cx="12" cy="4" r="1" stroke="black" stroke-width="0.8" fill="none"/>
  <circle cx="12" cy="20" r="1" stroke="black" stroke-width="0.8" fill="none"/>
  <circle cx="4" cy="12" r="1" stroke="black" stroke-width="0.8" fill="none"/>
  <circle cx="20" cy="12" r="1" stroke="black" stroke-width="0.8" fill="none"/>
  
  <!-- Connection lines -->
  <path d="M10.8 10.8L6.8 6.8" stroke="black" stroke-width="0.6" stroke-linecap="round"/>
  <path d="M13.2 10.8L17.2 6.8" stroke="black" stroke-width="0.6" stroke-linecap="round"/>
  <path d="M10.8 13.2L6.8 17.2" stroke="black" stroke-width="0.6" stroke-linecap="round"/>
  <path d="M13.2 13.2L17.2 17.2" stroke="black" stroke-width="0.6" stroke-linecap="round"/>
  <path d="M12 10.5L12 5" stroke="black" stroke-width="0.6" stroke-linecap="round"/>
  <path d="M12 13.5L12 19" stroke="black" stroke-width="0.6" stroke-linecap="round"/>
  <path d="M10.5 12L5 12" stroke="black" stroke-width="0.6" stroke-linecap="round"/>
  <path d="M13.5 12L19 12" stroke="black" stroke-width="0.6" stroke-linecap="round"/>
</svg>

