<?xml version="1.0" encoding="UTF-8"?>
<svg id="_Слой_1" data-name="Слой 1" xmlns="http://www.w3.org/2000/svg" viewBox="0 0 500 248.79">
  <defs>
    <style>
      .cls-1 {
        stroke-width: 0px;
      }
    </style>
  </defs>
  <path class="cls-1" d="M99.96,111.42l-64-36.53c.14-1.14.14-2.27,0-3.41l64-36.45c5.39,3.91,12.73,3.91,18.12,0l63.93,36.45c-.14,1.14-.14,2.27,0,3.41l-63.93,36.45c-5.39-3.91-12.73-3.91-18.12.07Z"/>
  <path class="cls-1" d="M100.75,214.47c-1.08.43-2.01,1-2.95,1.71l-64-36.53c.72-6.61-2.95-12.86-9.06-15.49v-72.98c1.08-.43,2.01-1,2.95-1.71l63.93,36.45c-.72,6.61,2.95,12.86,9.06,15.49v73.05h.07Z"/>
  <path class="cls-1" d="M193.3,164.15c-6.11,2.63-9.85,8.95-9.06,15.49l-63.93,36.45c-.94-.64-1.94-1.21-2.95-1.71l-.14-72.48c6.11-2.63,9.85-8.95,9.06-15.49l64-36.88c.94.64,1.94,1.21,2.95,1.71v72.91h.07Z"/>
  <path class="cls-1" d="M109.02,10.66l99.67,56.85v113.7l-99.67,56.85L9.35,181.28v-113.77L109.02,10.66ZM109.02,0l-4.67,2.7L4.67,59.55l-4.67,2.63v124.36l4.67,2.7,99.67,56.85,4.67,2.7,4.67-2.7,99.67-56.85,4.67-2.7V62.18l-4.67-2.7L113.69,2.63l-4.67-2.63Z"/>
  <path class="cls-1" d="M290.33,80.18h-18.28v88.44h18.28v-88.44Z"/>
  <path class="cls-1" d="M322.21,168.61v-32.45c4.46.34,9.03.34,12.8.34,26.05,0,33.59-12.91,33.59-28.79,0-19.31-13.83-27.54-35.08-27.54h-29.59v88.44h18.28ZM332.04,123.71c-3.43,0-8.34,0-9.94-.11v-30.05h11.43c10.97,0,17.25,5.26,17.25,14.85v.23c.11,7.54-2.63,15.08-18.74,15.08Z"/>
  <path class="cls-1" d="M431.1,80.18h-55.53v88.44h18.28v-38.96h34.74v-13.25h-34.85v-22.74h36.11l1.26-13.48Z"/>
  <path class="cls-1" d="M491.29,98.7l4.63-11.8c-6.84-4.96-16.21-6.73-27.9-6.73-17.09,0-31.1,7.94-31.1,24.26,0,14.67,10.81,20.4,21.5,23.93l10.81,3.64c7.39,2.54,13.45,4.96,13.45,12.9,0,7.28-6.29,10.14-15.88,10.14s-20.07-2.87-26.02-6.62l-4.63,12.79c7.72,4.96,17.53,7.39,30.66,7.39,18.75,0,33.19-8.27,33.19-25.69,0-16.32-12.46-21.5-25.03-25.69l-11.69-3.86c-5.07-1.65-8.93-3.97-8.93-10.48s5.4-9.26,13.56-9.26c9.92-.33,17.64,1.54,23.38,5.07Z"/>
</svg>